<svg width="185" height="64" viewBox="0 0 186 72" fill="#ff004a" xmlns="http://www.w3.org/2000/svg"><path d="M87.6 21H76.4V49H87.6C95.32 49 101.2 42.92 101.2 35C101.2 27.08 95.32 21 87.6 21ZM87.6 42.84H82.8V27.16H87.6C92 27.16 95.04 30.2 95.04 35C95.04 39.8 92 42.84 87.6 42.84ZM111.308 49H118.588L123.148 32.48L127.708 49H134.988L142.708 21H135.988L131.148 40.6L125.748 21H120.548L115.148 40.6L110.308 21H103.588L111.308 49ZM147.509 21V49H153.909V21H147.509ZM176.32 21V36.2L165.52 21H160.72V49H167.12V33.8L177.92 49H182.72V21H176.32Z"></path><path d="M47.4496 20.1582C48.8657 32.1216 50.276 44.0858 51.6806 56.0506V56.1362H7.15906L11.389 20.2156C11.6618 20.2156 11.9305 20.1582 12.2033 20.1467H46.4489L47.4496 20.1582ZM33.7456 40.268V33.587C33.7042 32.6934 33.4094 31.8301 32.8958 31.0986C32.3787 30.368 31.663 29.8018 30.834 29.4675C30.1769 29.1861 29.4479 29.1203 28.7513 29.2796C27.7552 29.5144 26.8659 30.0763 26.2247 30.8761C25.5836 31.6759 25.2274 32.6675 25.2128 33.6936L25.2118 39.8075V40.268H33.7456ZM29.4219 59.0976H55.6429C56.2031 59.0851 56.7613 59.1185 57.3184 59.1916C57.5579 59.2073 57.7943 59.2731 58.014 59.3827C58.2296 59.4924 58.4202 59.6438 58.5795 59.8317C58.7351 60.0189 58.8515 60.2355 58.922 60.4687C58.9925 60.7019 59.0155 60.9469 58.9898 61.1892V69.47C59.0129 69.8101 58.9627 70.1512 58.8426 70.4701C58.7226 70.789 58.5356 71.0783 58.2942 71.3183C58.0505 71.5585 57.762 71.7423 57.4444 71.8561C57.1247 71.974 56.7832 72.0203 56.4437 71.9918H2.62297C2.22507 72.003 1.82774 71.9544 1.44417 71.8477C1.01215 71.7227 0.635008 71.4548 0.374097 71.0875C0.113185 70.7203 -0.0161515 70.2754 0.0071213 69.8251V60.8833C-0.013662 60.6658 0.0111679 60.4463 0.0800153 60.239C0.145919 60.0312 0.254196 59.8394 0.397971 59.6758C0.541745 59.5122 0.717874 59.3804 0.915171 59.2887C1.1099 59.1948 1.32129 59.1425 1.54102 59.13C2.02108 59.0642 2.5053 59.0444 2.98848 59.0601H29.3646L29.4219 59.0976ZM15.9292 6.40461H22.9989V1.87264C22.9778 1.62243 23.0108 1.3706 23.0958 1.13437C23.1811 0.897325 23.3196 0.685346 23.4988 0.509915C23.6737 0.330307 23.8893 0.196645 24.1256 0.114151C24.361 0.0285236 24.613 -0.00071496 24.8619 0.0243466H33.8518C34.1267 -0.00101651 34.4039 0.0338785 34.6641 0.126613C34.9243 0.219348 35.1613 0.367705 35.3586 0.561403C35.5559 0.755101 35.7089 0.989508 35.8069 1.24838C35.9049 1.50725 35.9456 1.78439 35.9261 2.0606V6.35553C38.0609 6.51008 40.206 6.51008 42.3366 6.35553V2.34568C42.3128 1.97611 42.3957 1.60749 42.5754 1.28395C42.7551 0.960411 43.024 0.695662 43.3499 0.521402C43.8416 0.190116 44.4204 0.0127559 45.0129 0.0118158H51.9409C52.5277 0.014636 53.1012 0.187229 53.5925 0.508871C53.8934 0.675948 54.1444 0.921343 54.3162 1.21895C54.4828 1.51656 54.5682 1.85906 54.5599 2.20157V10.6943C54.5567 11.0001 54.4375 11.2931 54.2267 11.514C52.6122 13.3093 51.0095 15.1151 49.4188 16.9315C49.3302 17.0543 49.211 17.1515 49.0731 17.2135C48.9335 17.2742 48.7811 17.2993 48.6295 17.2866H10.5997C10.3044 17.3101 10.0079 17.2599 9.73676 17.1403C9.46561 17.0208 9.22827 16.8356 9.04597 16.6015C7.66099 14.9386 6.25085 13.2969 4.81604 11.6769C4.65004 11.5077 4.52219 11.3048 4.44116 11.0817C4.35639 10.8613 4.31913 10.6253 4.33181 10.3894V2.43966C4.29084 1.95624 4.4064 1.47247 4.66133 1.06013C4.91627 0.647789 5.29699 0.328868 5.747 0.150699C6.0469 0.0358332 6.36868 -0.0163785 6.68629 0.0045062H13.6987C13.9779 0.00626163 14.2539 0.0634553 14.511 0.172785C14.768 0.282115 15.0008 0.441415 15.1961 0.641488C15.5939 1.04456 15.8137 1.59174 15.8105 2.15354V5.97543C15.8918 6.14251 15.9157 6.26259 15.9292 6.40461Z"></path></svg>