<svg width="24" height="25" viewBox="0 0 24 25" fill="none" xmlns="http://www.w3.org/2000/svg">
<path d="M6.42188 2.76562C0.328125 6.14062 0.046875 6.5625 0.046875 13.0781C0.09375 21.4219 1.125 22.7812 8.25 23.8125C11.1094 24.2344 12.8906 24.2344 15.75 23.8125C22.875 22.7812 23.9062 21.4219 23.9531 13.0781C23.9531 8.53125 23.8125 7.6875 22.9688 6.51562C21.7969 4.92188 13.6406 0.28125 12 0.28125C11.3438 0.28125 8.85938 1.40625 6.42188 2.76562ZM16.1719 13.5469C19.3594 14.6719 18.2344 15.0469 12 15.0469C5.76562 15.0469 4.64062 14.6719 7.82812 13.5469C8.71875 13.2188 10.5938 12.9844 12 12.9844C13.4062 12.9844 15.2812 13.2188 16.1719 13.5469ZM18.4219 17.2969C19.0312 17.9062 18.1406 18.1875 14.4375 18.4219C10.4062 18.7031 5.4375 18.2812 5.4375 17.625C5.4375 17.3906 6 17.1094 6.75 17.0156C8.57812 16.6875 18.0469 16.9219 18.4219 17.2969ZM18.0469 20.9531C17.1094 22.7812 6.89062 22.7812 5.95312 20.9531C5.57812 20.2969 6.1875 20.2031 12 20.2031C17.8125 20.2031 18.4219 20.2969 18.0469 20.9531Z" fill="white"/>
</svg>
