<svg width="24" height="24" viewBox="0 0 24 24" fill="none" xmlns="http://www.w3.org/2000/svg">
<path d="M6.37117 2.48288C0.281081 5.85585 0 6.27747 0 12.7892C0.0468468 21.1279 1.07748 22.4865 8.19819 23.5171C11.0558 23.9387 12.836 23.9387 15.6937 23.5171C22.8144 22.4865 23.845 21.1279 23.8919 12.7892C23.8919 8.19819 23.7513 7.4018 22.9081 6.23063C21.7369 4.63783 13.5856 -7.45058e-08 11.9459 -7.45058e-08C11.2901 -7.45058e-08 8.8072 1.12432 6.37117 2.48288ZM16.9117 4.26306C22.018 7.02702 22.018 7.02702 22.018 13.5856C21.9712 18.1766 21.5027 19.7694 19.9567 20.5657C19.2072 20.9874 19.1603 20.8468 19.3477 18.5982C19.582 15.4126 18.7856 12.3676 17.427 11.618C16.0685 10.8216 7.82342 10.8216 6.46486 11.618C5.1063 12.3676 4.30991 15.4126 4.54414 18.5982C4.73153 20.8468 4.68468 20.9874 3.93513 20.5657C2.29549 19.7225 1.87387 18.1766 1.87387 13.1171C1.87387 10.4 2.10811 7.82342 2.38919 7.35495C2.9045 6.41801 10.7748 1.92072 11.8991 1.87387C12.227 1.87387 14.5225 2.95135 16.9117 4.26306ZM15.6937 13.0703C16.3495 13.2576 16.9117 13.6793 17.0054 14.054C17.0991 14.6162 16.209 14.7567 11.9459 14.7567C7.68288 14.7567 6.79279 14.6162 6.88648 14.054C7.07387 13.164 8.76035 12.7423 11.9459 12.7423C13.3513 12.7423 15.0378 12.8829 15.6937 13.0703ZM17.3802 16.9585C17.5676 17.1928 17.5676 17.4739 17.3802 17.6612C16.9117 18.1766 9.97837 18.4576 7.96396 18.0829C6.18378 17.7549 5.809 17.0991 7.16756 16.6775C8.38558 16.3495 16.9585 16.5838 17.3802 16.9585ZM17.0991 20.6594C17.0991 21.5495 15.3189 22.018 11.9459 22.018C8.57296 22.018 6.79279 21.5495 6.79279 20.6594C6.79279 20.0036 7.49549 19.9099 11.9459 19.9099C16.3964 19.9099 17.0991 20.0036 17.0991 20.6594Z" fill="white"/>
</svg>
