<svg width="22" height="20" viewBox="0 0 22 20" fill="none" xmlns="http://www.w3.org/2000/svg">
<path d="M3.95945 5.92893L4.48978 5.3986L3.95945 5.92893ZM2.03052 4L2.56085 3.46967L2.03052 4ZM3.09159 18.0451L3.53243 17.4383H3.53243L3.09159 18.0451ZM1.98543 16.9389L1.37867 17.3798L1.98543 16.9389ZM20.0756 16.9389L19.4688 16.4981V16.4981L20.0756 16.9389ZM18.9694 18.0451L18.5286 17.4383V17.4383L18.9694 18.0451ZM3.09159 1.95491L2.65075 1.34815L2.65075 1.34815L3.09159 1.95491ZM1.98543 3.06107L1.37867 2.62023L1.37867 2.62023L1.98543 3.06107ZM16.5495 8.51581C16.8485 8.22918 16.8586 7.75441 16.5719 7.45538C16.2853 7.15636 15.8106 7.14631 15.5115 7.43294L16.5495 8.51581ZM21.7729 7.9651C21.7678 7.55092 21.4279 7.21931 21.0137 7.22443C20.5995 7.22956 20.2679 7.56947 20.2731 7.98365L21.7729 7.9651ZM14.0215 1.75715C14.4357 1.76212 14.7755 1.43038 14.7805 1.0162C14.7854 0.602012 14.4537 0.262225 14.0395 0.25726L14.0215 1.75715ZM1.65155 3.62103L0.975895 3.29546L1.65155 3.62103ZM4.48978 5.3986L2.56085 3.46967L1.50019 4.53033L3.42912 6.45926L4.48978 5.3986ZM3.42912 6.45926C5.08079 8.11094 6.37177 9.40417 7.5134 10.2752C8.67233 11.1594 9.76507 11.6789 11.0305 11.6789V10.1789C10.2249 10.1789 9.44877 9.8651 8.42327 9.08267C7.38046 8.28703 6.17144 7.08026 4.48978 5.3986L3.42912 6.45926ZM10.0305 1.75H12.0305V0.25H10.0305V1.75ZM12.0305 18.25H10.0305V19.75H12.0305V18.25ZM10.0305 18.25C8.13895 18.25 6.78051 18.249 5.72856 18.135C4.69065 18.0225 4.04043 17.8074 3.53243 17.4383L2.65075 18.6518C3.45708 19.2377 4.40146 19.5 5.56699 19.6263C6.71849 19.751 8.17236 19.75 10.0305 19.75V18.25ZM0.280518 10C0.280518 11.8582 0.279488 13.312 0.404245 14.4635C0.530523 15.6291 0.792841 16.5734 1.37867 17.3798L2.5922 16.4981C2.22311 15.9901 2.00797 15.3399 1.89552 14.302C1.78155 13.25 1.78052 11.8916 1.78052 10H0.280518ZM3.53243 17.4383C3.17163 17.1762 2.85433 16.8589 2.5922 16.4981L1.37867 17.3798C1.73333 17.8679 2.16261 18.2972 2.65075 18.6518L3.53243 17.4383ZM20.2805 10C20.2805 11.8916 20.2795 13.25 20.1655 14.302C20.0531 15.3399 19.8379 15.9901 19.4688 16.4981L20.6824 17.3798C21.2682 16.5734 21.5305 15.6291 21.6568 14.4635C21.7815 13.312 21.7805 11.8582 21.7805 10H20.2805ZM12.0305 19.75C13.8887 19.75 15.3425 19.751 16.494 19.6263C17.6596 19.5 18.604 19.2377 19.4103 18.6518L18.5286 17.4383C18.0206 17.8074 17.3704 18.0225 16.3325 18.135C15.2805 18.249 13.9221 18.25 12.0305 18.25V19.75ZM19.4688 16.4981C19.2067 16.8589 18.8894 17.1762 18.5286 17.4383L19.4103 18.6518C19.8984 18.2972 20.3277 17.8679 20.6824 17.3798L19.4688 16.4981ZM10.0305 0.25C8.17236 0.25 6.71849 0.248971 5.56699 0.373728C4.40146 0.500006 3.45708 0.762324 2.65075 1.34815L3.53243 2.56168C4.04043 2.19259 4.69065 1.97745 5.72856 1.865C6.78051 1.75103 8.13895 1.75 10.0305 1.75V0.25ZM2.65075 1.34815C2.16261 1.70281 1.73333 2.13209 1.37867 2.62023L2.5922 3.50191C2.85433 3.14111 3.17163 2.82382 3.53243 2.56168L2.65075 1.34815ZM15.5115 7.43294C13.4335 9.42481 12.2837 10.1789 11.0305 10.1789V11.6789C12.9614 11.6789 14.5178 10.4633 16.5495 8.51581L15.5115 7.43294ZM21.7805 10C21.7805 9.25528 21.7805 8.57856 21.7729 7.9651L20.2731 7.98365C20.2805 8.586 20.2805 9.2528 20.2805 10H21.7805ZM12.0305 1.75C12.7672 1.75 13.4258 1.75001 14.0215 1.75715L14.0395 0.25726C13.433 0.249989 12.7648 0.25 12.0305 0.25V1.75ZM20.2805 3C20.2805 3.69036 19.7209 4.25 19.0305 4.25V5.75C20.5493 5.75 21.7805 4.51878 21.7805 3H20.2805ZM19.0305 4.25C18.3402 4.25 17.7805 3.69036 17.7805 3H16.2805C16.2805 4.51878 17.5117 5.75 19.0305 5.75V4.25ZM17.7805 3C17.7805 2.30964 18.3402 1.75 19.0305 1.75V0.25C17.5117 0.25 16.2805 1.48122 16.2805 3H17.7805ZM19.0305 1.75C19.7209 1.75 20.2805 2.30964 20.2805 3H21.7805C21.7805 1.48122 20.5493 0.25 19.0305 0.25V1.75ZM1.78052 10C1.78052 8.36482 1.781 7.12493 1.85602 6.13204C1.93089 5.14093 2.07639 4.46709 2.3272 3.9466L0.975895 3.29546C0.605671 4.06379 0.440659 4.95506 0.360277 6.01904C0.28003 7.08125 0.280518 8.38643 0.280518 10H1.78052ZM2.3272 3.9466C2.40399 3.78722 2.49164 3.64031 2.5922 3.50191L1.37867 2.62023C1.22406 2.83304 1.09064 3.05734 0.975895 3.29546L2.3272 3.9466ZM2.56085 3.46967L2.18188 3.0907L1.12122 4.15136L1.50019 4.53033L2.56085 3.46967Z" fill="white"/>
</svg>
