<svg width="20" height="20" viewBox="0 0 20 20" fill="none" xmlns="http://www.w3.org/2000/svg">
<path d="M10.3833 18.9583C10.2417 18.9583 10.1 18.9583 9.95834 18.95C5.29167 18.7417 1.39167 14.9833 1.06667 10.4C0.783341 6.46667 3.05834 2.79167 6.72501 1.25C7.76667 0.816671 8.31667 1.15 8.55001 1.39167C8.78334 1.625 9.10834 2.16667 8.67501 3.15834C8.29167 4.04167 8.10001 4.98334 8.10834 5.95C8.12501 9.64167 11.1917 12.775 14.9333 12.925C15.475 12.95 16.0083 12.9083 16.525 12.8167C17.625 12.6167 18.0833 13.0583 18.2583 13.3417C18.4333 13.625 18.6333 14.2333 17.9667 15.1333C16.2 17.55 13.3917 18.9583 10.3833 18.9583ZM2.30834 10.3083C2.59167 14.275 5.97501 17.525 10.0083 17.7C12.75 17.8333 15.35 16.5833 16.95 14.4C17.075 14.225 17.1333 14.1 17.1583 14.0333C17.0833 14.025 16.95 14.0167 16.7417 14.0583C16.1333 14.1667 15.5 14.2083 14.875 14.1833C10.475 14.0083 6.87501 10.3167 6.85001 5.96667C6.85001 4.81667 7.07501 3.70834 7.53334 2.66667C7.61667 2.48334 7.63334 2.35834 7.64167 2.29167C7.56667 2.29167 7.43334 2.30834 7.21667 2.4C4.04167 3.73334 2.07501 6.91667 2.30834 10.3083Z" fill="#1C1C1E"/>
</svg>
