<?xml version="1.0" encoding="iso-8859-1"?>
<!-- Uploaded to: SVG Repo, www.svgrepo.com, Generator: SVG Repo Mixer Tools -->
<svg fill="white" height="800px" width="800px" version="1.1" id="Layer_1" xmlns="http://www.w3.org/2000/svg" xmlns:xlink="http://www.w3.org/1999/xlink" 
	 viewBox="0 0 512 512" xml:space="preserve">
<g>
	<g>
		<path d="M439.652,77.913H306.087C278.468,77.913,256,100.381,256,128v16.696h-33.391V94.609c0-9.223-7.479-16.696-16.696-16.696
			h-16.696V50.087C189.217,22.468,166.749,0,139.13,0H38.957c-9.217,0-16.696,7.473-16.696,16.696
			c0,9.223,7.479,16.696,16.696,16.696H139.13c9.206,0,16.696,7.49,16.696,16.696v27.826H139.13
			c-9.217,0-16.696,7.473-16.696,16.696v50.087h-16.696c-27.619,0-50.087,22.468-50.087,50.087v267.13
			c0,27.619,22.468,50.087,50.087,50.087h333.913c27.619,0,50.087-22.468,50.087-50.087V128
			C489.739,100.381,467.271,77.913,439.652,77.913z M384.673,416.718c6.521,6.516,6.521,17.092,0,23.609
			c-3.261,3.261-7.533,4.892-11.804,4.892s-8.544-1.631-11.804-4.892l-88.37-88.37l-88.37,88.37
			c-3.261,3.261-7.533,4.892-11.804,4.892c-4.271,0-8.544-1.631-11.804-4.892c-6.521-6.516-6.521-17.092,0-23.609l88.369-88.37
			l-88.37-88.37c-6.521-6.516-6.521-17.092,0-23.609c6.521-6.521,17.087-6.521,23.609,0l88.37,88.37l88.37-88.37
			c6.521-6.521,17.087-6.521,23.609,0c6.521,6.516,6.521,17.092,0,23.609l-88.37,88.37L384.673,416.718z M406.261,178.087h-66.783
			c-9.217,0-16.696-7.473-16.696-16.696c0-9.223,7.479-16.696,16.696-16.696h66.783c9.217,0,16.696,7.473,16.696,16.696
			C422.957,170.614,415.478,178.087,406.261,178.087z"/>
	</g>
</g>
</svg>