<svg width="130" height="50" viewBox="0 0 130 50" fill="none" xmlns="http://www.w3.org/2000/svg">
<path d="M119.406 26.2693C119.7 26.379 120.105 26.4617 120.621 26.5175C122.376 26.7119 124.084 27.1035 125.745 27.6924C125.93 27.7559 126.042 27.8445 126.083 27.958C126.152 28.1485 126.007 28.289 125.647 28.3795C123.684 28.8683 121.697 29.233 119.686 29.4735C117.848 29.6949 116.027 30.0124 114.224 30.4262C113.662 30.5551 113.129 30.7572 112.625 31.0324C112.073 31.3364 112.097 31.6376 112.697 31.9359C114.244 32.7038 115.859 33.2956 117.541 33.7113C118.673 33.9903 119.618 34.3502 120.379 34.7909C120.954 35.1238 120.916 35.3567 120.263 35.4895C118.379 35.8686 116.478 36.0986 114.559 36.1794C109.159 36.4065 103.77 36.7885 98.3933 37.3254C96.8807 37.4775 95.8934 37.6593 95.4315 37.871C95.2218 37.9673 95.1842 38.0818 95.319 38.2146C95.3748 38.2704 95.4594 38.3127 95.573 38.3416C96.949 38.6918 98.7003 38.9738 100.827 39.1874C104.859 39.5934 108.857 40.216 112.821 41.0551C113.772 41.2552 114.699 41.5795 115.601 42.0279C115.984 42.2184 116.017 42.4571 115.699 42.7438C115.513 42.9132 115.251 43.0421 114.914 43.1307C114.035 43.3654 113.143 43.5425 112.238 43.6618C108.743 44.1198 105.234 44.4297 101.71 44.5913C95.7712 44.8646 89.8294 45.0657 83.8846 45.1947C69.8917 45.4968 58.3688 46.0386 49.316 46.8199C42.4995 47.4088 35.683 47.9919 28.8664 48.5693C28.8491 48.5712 27.857 48.6655 25.8902 48.8522C23.1016 49.1197 20.3082 49.2236 17.51 49.1639C15.4123 49.1197 13.6409 48.8887 12.1956 48.4711C10.3942 47.9496 8.61698 47.1884 6.86378 46.1877C6.15364 45.7836 5.59938 45.2842 5.20102 44.6895C5.0663 44.4893 4.7988 43.8167 4.39851 42.6717C4.03478 41.6344 3.545 40.6538 2.92916 39.7301C2.61739 39.2624 2.11703 38.2434 1.42806 36.673C0.0655258 33.5669 -0.234693 30.3578 0.527404 27.0458C0.856491 25.6178 0.934432 24.1735 0.761228 22.7128C0.389802 19.5759 0.144429 16.9307 0.0251113 14.7772C-0.0480192 13.457 0.0385809 11.9973 0.284915 10.398C0.952712 6.08524 3.29578 3.23893 7.31411 1.85907C9.07693 1.25286 11.0495 0.907417 13.2319 0.82274C32.7828 0.0587185 52.3404 -0.173183 71.9047 0.127037C85.9034 0.340655 99.8492 1.31541 113.742 3.0513C116.442 3.38808 119.117 3.86535 121.767 4.48311C122.318 4.61013 122.85 4.792 123.364 5.02871C123.72 5.19229 123.788 5.36838 123.568 5.55698C123.352 5.7433 123.086 5.86176 122.804 5.89761C120.49 6.1959 118.174 6.33832 115.855 6.32485C111.644 6.29983 107.435 6.23151 103.226 6.11989C101.288 6.06985 99.3575 6.16031 97.4349 6.39124C97.3368 6.40279 97.2579 6.42973 97.1982 6.47207C97.0269 6.59524 97.0722 6.70301 97.3339 6.79538C98.2422 7.11293 99.1718 7.34386 100.122 7.4882C102.162 7.79612 104.208 8.054 106.26 8.26184C110.432 8.6833 114.596 9.17694 118.751 9.74273C121.785 10.1546 124.788 10.7348 127.757 11.4834C128.375 11.6393 128.972 11.8529 129.55 12.1243C130.083 12.3764 130.143 12.617 129.729 12.846C129.184 13.15 128.604 13.354 127.988 13.458C126.335 13.7389 124.68 14.0055 123.023 14.2576C121.46 14.4962 119.913 14.8118 118.381 15.2044C118.038 15.293 117.79 15.3988 117.636 15.522C117.346 15.7529 117.382 15.9078 117.746 15.9867C118.718 16.1946 119.699 16.3245 120.69 16.3764C122.134 16.4553 123.673 16.668 125.309 17.0144C126.398 17.2453 127.395 17.5946 128.3 18.0623C128.579 18.2066 128.774 18.3548 128.886 18.5069C129.151 18.8706 128.969 19.141 128.337 19.318C127.111 19.6606 125.862 19.8511 124.588 19.8896C121.422 19.9858 118.273 20.2726 115.142 20.7498C114.821 20.7979 114.505 20.8759 114.195 20.9837C113.608 21.1877 113.638 21.3743 114.285 21.5437C114.943 21.715 115.612 21.8275 116.291 21.8814C118.71 22.072 120.225 22.2538 120.835 22.427C122.066 22.7773 122.175 23.345 121.161 24.1302C120.607 24.5594 119.985 25.0568 119.296 25.6226C118.959 25.8998 118.996 26.1153 119.406 26.2693Z" fill="#dfff0c"/>
</svg>
